<svg xmlns="http://www.w3.org/2000/svg" xmlns:xlink="http://www.w3.org/1999/xlink" width="440" zoomAndPan="magnify" viewBox="0 0 330 159.000002" height="212" preserveAspectRatio="xMidYMid meet" version="1.0"><defs><g/><clipPath id="99c1988090"><path d="M 1.03125 0.046875 L 159 0.046875 L 159 158.007812 L 1.03125 158.007812 Z M 1.03125 0.046875 " clip-rule="nonzero"/></clipPath><clipPath id="a4d5d40ed8"><path d="M 293.652344 101 L 313 101 L 313 123.253906 L 293.652344 123.253906 Z M 293.652344 101 " clip-rule="nonzero"/></clipPath><clipPath id="47af10819b"><path d="M 309 101 L 313 101 L 313 123.253906 L 309 123.253906 Z M 309 101 " clip-rule="nonzero"/></clipPath><clipPath id="86f3b3b730"><path d="M 298 99.40625 L 308 99.40625 L 308 104 L 298 104 Z M 298 99.40625 " clip-rule="nonzero"/></clipPath></defs><g clip-path="url(#99c1988090)"><path stroke-linecap="butt" transform="matrix(1.532263, 0, 0, 1.534041, 1.054074, 0.0454513)" fill="none" stroke-linejoin="miter" d="M 92.622772 72.412307 C 89.020564 80.642204 85.112437 86.916482 79.664512 92.077992 C 73.604747 97.860819 66.400332 100.931752 58.143041 101.644738 C 51.333773 102.222766 44.702957 101.423203 38.158819 99.465038 C 31.482116 97.506872 25.419801 94.435939 20.14778 89.763334 C 15.801167 85.849549 12.46409 81.176944 9.871419 75.92631 C 5.874064 67.87466 3.194715 59.420682 1.965936 50.477799 C 1.175643 44.692426 1.129755 38.952887 2.626214 33.302472 C 4.030896 27.873592 6.886149 23.335945 10.837616 19.465449 C 14.745743 15.638241 19.27081 12.702266 24.101796 10.255196 C 31.525454 6.562947 39.30092 3.802672 47.468984 2.335958 C 53.312055 1.266478 59.155127 0.999109 65.038988 2.201 C 70.57359 3.357056 75.317899 5.982372 79.445269 9.852868 C 83.926997 14.036569 87.264074 19.063121 89.986762 24.537836 C 93.107145 30.855402 95.302121 37.486173 96.311657 44.514179 C 97.277854 51.498897 96.839369 58.394491 94.952863 65.206055 C 94.070793 68.14203 93.061257 70.945593 92.622772 72.412307 Z M 92.622772 72.412307 " stroke="#262627" stroke-width="1" stroke-opacity="1" stroke-miterlimit="4"/></g><path fill="#262627" d="M 77.667969 66.375 L 77.667969 62.347656 L 98.597656 62.347656 L 98.597656 66.375 L 90.253906 66.375 L 90.253906 89.308594 L 86.078125 89.308594 L 86.078125 66.375 Z M 133.730469 89.578125 C 131.507812 89.578125 129.554688 88.488281 128.613281 87.125 L 128.613281 97.089844 L 124.644531 97.089844 L 124.644531 69.855469 L 128.613281 69.855469 L 128.613281 72.105469 C 129.355469 70.8125 131.507812 69.582031 133.796875 69.582031 C 139.382812 69.582031 142.34375 73.265625 142.34375 79.546875 C 142.34375 85.757812 139.316406 89.578125 133.730469 89.578125 Z M 138.171875 79.546875 C 138.171875 77.566406 137.699219 75.996094 136.824219 74.835938 C 135.882812 73.675781 134.738281 73.0625 133.324219 73.0625 C 131.914062 73.0625 130.699219 73.609375 129.824219 74.835938 C 128.882812 75.996094 128.480469 77.566406 128.480469 79.546875 C 128.480469 81.527344 128.949219 83.09375 129.824219 84.257812 C 130.769531 85.417969 131.914062 85.960938 133.324219 85.960938 C 134.738281 85.960938 135.949219 85.417969 136.824219 84.257812 C 137.699219 83.09375 138.171875 81.527344 138.171875 79.546875 Z M 163.472656 80.707031 L 149.949219 80.707031 C 149.949219 83.777344 151.699219 86.03125 154.660156 86.03125 C 156.8125 86.03125 158.699219 84.804688 159.640625 82.753906 L 163.003906 84.121094 C 161.054688 87.941406 158.832031 89.582031 154.59375 89.582031 C 148.265625 89.582031 145.707031 84.1875 145.707031 79.613281 C 145.707031 74.972656 148.332031 69.648438 154.59375 69.648438 C 160.71875 69.648438 163.40625 74.699219 163.40625 79 L 163.40625 80.703125 L 163.472656 80.703125 Z M 150.015625 77.359375 L 159.300781 77.359375 C 158.96875 74.972656 157.351562 73.128906 154.660156 73.128906 C 152.167969 73.128906 150.488281 74.835938 150.015625 77.363281 Z M 166.707031 73.402344 L 166.707031 69.855469 L 169.195312 69.855469 L 169.195312 68.832031 C 169.195312 64.253906 171.617188 62.003906 175.589844 62.003906 C 176.867188 62.003906 177.878906 62.207031 178.753906 62.6875 L 177.945312 66.101562 C 177.273438 65.757812 176.53125 65.554688 175.722656 65.554688 C 174.042969 65.554688 173.164062 66.578125 173.164062 68.625 L 173.164062 69.921875 L 177.40625 69.921875 L 177.40625 73.472656 L 173.167969 73.472656 L 173.167969 89.308594 L 169.199219 89.308594 L 169.199219 73.472656 L 166.707031 73.472656 Z M 179.898438 79.546875 C 179.898438 76.75 180.707031 74.359375 182.457031 72.449219 C 184.136719 70.539062 186.492188 69.582031 189.320312 69.582031 C 192.144531 69.582031 194.433594 70.535156 196.117188 72.445312 C 197.800781 74.359375 198.675781 76.746094 198.675781 79.546875 C 198.675781 82.34375 197.800781 84.730469 196.117188 86.644531 C 194.433594 88.554688 192.144531 89.511719 189.320312 89.511719 C 186.492188 89.511719 184.136719 88.554688 182.457031 86.644531 C 180.773438 84.804688 179.898438 82.414062 179.898438 79.546875 Z M 184.070312 79.546875 C 184.070312 81.320312 184.542969 82.824219 185.414062 84.117188 C 186.359375 85.417969 187.636719 86.03125 189.253906 86.03125 C 190.867188 86.03125 192.144531 85.417969 193.089844 84.121094 C 194.03125 82.824219 194.503906 81.320312 194.503906 79.546875 C 194.503906 77.773438 194.03125 76.269531 193.089844 75.042969 C 192.144531 73.746094 190.867188 73.128906 189.253906 73.128906 C 187.636719 73.128906 186.355469 73.8125 185.414062 75.042969 C 184.542969 76.339844 184.070312 77.839844 184.070312 79.546875 Z M 206.414062 89.238281 L 202.445312 89.238281 L 202.445312 69.855469 L 206.414062 69.855469 L 206.414062 73.0625 C 207.695312 70.8125 209.914062 69.511719 212.066406 69.511719 C 212.941406 69.511719 213.75 69.652344 214.488281 69.992188 L 213.816406 73.675781 C 213.210938 73.265625 212.46875 73.128906 211.597656 73.128906 C 210.183594 73.128906 208.972656 73.882812 207.960938 75.453125 C 206.949219 77.023438 206.414062 79.203125 206.414062 82.070312 L 206.414062 89.242188 Z M 218.527344 69.855469 L 222.5 69.855469 L 222.5 73.128906 C 224.046875 70.742188 225.933594 69.511719 228.289062 69.511719 C 230.84375 69.511719 232.996094 71.082031 233.535156 73.539062 C 234.878906 70.949219 237.035156 69.511719 239.457031 69.511719 C 242.890625 69.511719 244.910156 71.832031 244.910156 75.3125 L 244.910156 89.167969 L 240.9375 89.167969 L 240.9375 76.203125 C 240.9375 74.152344 239.863281 73.0625 238.113281 73.0625 C 235.621094 73.0625 233.667969 76.339844 233.667969 81.457031 L 233.667969 89.238281 L 229.699219 89.238281 L 229.699219 76.273438 C 229.699219 74.222656 228.621094 73.128906 226.871094 73.128906 C 224.3125 73.128906 222.429688 76.40625 222.429688 81.9375 L 222.429688 89.308594 L 218.460938 89.308594 L 218.460938 69.855469 Z M 121.007812 69.855469 L 116.433594 69.855469 L 109.90625 84.050781 L 103.78125 69.855469 L 99.273438 69.855469 L 107.617188 89.171875 L 103.980469 97.089844 L 108.558594 97.089844 Z M 121.007812 69.855469 " fill-opacity="1" fill-rule="nonzero"/><g fill="#000000" fill-opacity="1"><g transform="translate(153.654837, 121.167043)"><g><path d="M 9.269531 -10.050781 L 6.796875 -10.546875 C 4.660156 -10.964844 3.722656 -12.003906 3.722656 -13.488281 C 3.722656 -15.027344 4.894531 -16.613281 7.785156 -16.613281 C 10.519531 -16.613281 11.71875 -15.285156 12.03125 -13.621094 L 14.246094 -13.621094 C 13.878906 -16.5625 11.667969 -18.464844 7.785156 -18.464844 C 3.699219 -18.464844 1.484375 -16.300781 1.484375 -13.542969 C 1.484375 -10.808594 3.332031 -9.402344 6.378906 -8.777344 L 9.035156 -8.253906 C 10.988281 -7.863281 12.5 -7.082031 12.5 -5 C 12.5 -3.046875 10.964844 -1.613281 7.996094 -1.613281 C 4.894531 -1.613281 3.699219 -3.359375 3.359375 -5.3125 L 1.121094 -5.3125 C 1.433594 -2.082031 3.644531 0.234375 7.996094 0.234375 C 12.160156 0.234375 14.738281 -1.769531 14.738281 -4.972656 C 14.738281 -8.074219 12.707031 -9.347656 9.269531 -10.050781 Z M 9.269531 -10.050781 "/></g></g></g><g fill="#000000" fill-opacity="1"><g transform="translate(169.512755, 121.167043)"><g><path d="M 7.214844 -1.5625 C 4.894531 -1.5625 2.863281 -3.175781 2.863281 -6.746094 C 2.863281 -10.285156 4.871094 -11.953125 7.1875 -11.953125 C 9.089844 -11.953125 10.234375 -11.09375 10.808594 -9.503906 L 12.734375 -9.503906 C 11.953125 -12.628906 9.636719 -13.671875 7.160156 -13.671875 C 4.0625 -13.671875 0.859375 -11.589844 0.859375 -6.746094 C 0.859375 -1.902344 4.089844 0.183594 7.1875 0.183594 C 9.660156 0.183594 12.058594 -0.859375 12.839844 -4.089844 L 10.910156 -4.089844 C 10.3125 -2.394531 9.167969 -1.5625 7.214844 -1.5625 Z M 7.214844 -1.5625 "/></g></g></g><g fill="#000000" fill-opacity="1"><g transform="translate(183.131288, 121.167043)"><g><path d="M 7.136719 -13.671875 C 4.167969 -13.671875 0.859375 -11.535156 0.859375 -6.769531 C 0.859375 -1.953125 4.167969 0.183594 7.136719 0.183594 C 10.105469 0.183594 13.4375 -1.953125 13.4375 -6.769531 C 13.4375 -11.535156 10.105469 -13.671875 7.136719 -13.671875 Z M 11.40625 -6.769531 C 11.40625 -3.175781 9.324219 -1.5625 7.136719 -1.5625 C 4.949219 -1.5625 2.863281 -3.175781 2.863281 -6.769531 C 2.863281 -10.339844 4.949219 -11.925781 7.136719 -11.925781 C 9.324219 -11.925781 11.40625 -10.339844 11.40625 -6.769531 Z M 11.40625 -6.769531 "/></g></g></g><g fill="#000000" fill-opacity="1"><g transform="translate(197.400811, 121.167043)"><g><path d="M 8.230469 -13.671875 C 5.625 -13.671875 4.035156 -12.082031 3.59375 -10.261719 L 3.59375 -13.542969 L 1.511719 -13.542969 L 1.511719 0 L 3.59375 0 L 3.59375 -7.917969 C 4.035156 -10.285156 5.625 -11.796875 8.386719 -11.796875 C 8.566406 -11.796875 8.800781 -11.796875 9.191406 -11.769531 L 9.191406 -13.621094 C 8.800781 -13.671875 8.515625 -13.671875 8.230469 -13.671875 Z M 8.230469 -13.671875 "/></g></g></g><g fill="#000000" fill-opacity="1"><g transform="translate(207.295728, 121.167043)"><g><path d="M 13.203125 -6.667969 C 13.203125 -11.511719 10.417969 -13.671875 7.160156 -13.671875 C 3.957031 -13.671875 0.859375 -11.511719 0.859375 -6.746094 C 0.859375 -2.003906 3.828125 0.183594 7.1875 0.183594 C 9.894531 0.183594 11.667969 -0.78125 12.734375 -3.019531 L 10.808594 -3.019531 C 10 -1.875 8.984375 -1.433594 7.292969 -1.433594 C 4.84375 -1.433594 3.125 -2.8125 2.890625 -6.015625 L 13.175781 -6.015625 C 13.203125 -6.25 13.203125 -6.457031 13.203125 -6.667969 Z M 2.890625 -7.449219 C 3.125 -10.574219 4.894531 -12.058594 7.160156 -12.058594 C 9.53125 -12.058594 11.144531 -10.46875 11.199219 -7.449219 Z M 2.890625 -7.449219 "/></g></g></g><g fill="#000000" fill-opacity="1"><g transform="translate(221.330895, 121.167043)"><g><path d="M 8.152344 -13.671875 C 6.09375 -13.671875 4.402344 -12.65625 3.59375 -11.015625 L 3.59375 -18.386719 L 1.511719 -18.386719 L 1.511719 0 L 3.59375 0 L 3.59375 -2.734375 C 4.269531 -1.171875 5.808594 0.183594 8.097656 0.183594 C 11.015625 0.183594 14.140625 -1.925781 14.140625 -6.769531 C 14.140625 -11.5625 11.015625 -13.671875 8.152344 -13.671875 Z M 7.785156 -1.5625 C 5.546875 -1.5625 3.488281 -3.253906 3.488281 -6.769531 C 3.488281 -10.390625 5.546875 -11.925781 7.785156 -11.925781 C 10.050781 -11.925781 12.109375 -10.363281 12.109375 -6.769531 C 12.109375 -3.175781 10.050781 -1.5625 7.785156 -1.5625 Z M 7.785156 -1.5625 "/></g></g></g><g fill="#000000" fill-opacity="1"><g transform="translate(236.329513, 121.167043)"><g><path d="M 7.136719 -13.671875 C 4.167969 -13.671875 0.859375 -11.535156 0.859375 -6.769531 C 0.859375 -1.953125 4.167969 0.183594 7.136719 0.183594 C 10.105469 0.183594 13.4375 -1.953125 13.4375 -6.769531 C 13.4375 -11.535156 10.105469 -13.671875 7.136719 -13.671875 Z M 11.40625 -6.769531 C 11.40625 -3.175781 9.324219 -1.5625 7.136719 -1.5625 C 4.949219 -1.5625 2.863281 -3.175781 2.863281 -6.769531 C 2.863281 -10.339844 4.949219 -11.925781 7.136719 -11.925781 C 9.324219 -11.925781 11.40625 -10.339844 11.40625 -6.769531 Z M 11.40625 -6.769531 "/></g></g></g><g fill="#000000" fill-opacity="1"><g transform="translate(250.599036, 121.167043)"><g><path d="M 12.34375 -2.34375 L 12.34375 -8.515625 C 12.34375 -12.265625 10.597656 -13.671875 7.003906 -13.671875 C 3.878906 -13.671875 1.980469 -12.472656 1.691406 -10.050781 L 3.671875 -10.050781 C 3.90625 -11.355469 4.921875 -12.082031 6.980469 -12.082031 C 9.113281 -12.082031 10.261719 -11.355469 10.261719 -9.011719 L 10.261719 -8.828125 C 9.324219 -8.332031 7.238281 -8.074219 5.625 -7.839844 C 2.472656 -7.34375 0.859375 -6.25 0.859375 -3.855469 C 0.859375 -1.171875 2.761719 0.183594 5.285156 0.183594 C 8.59375 0.183594 10.078125 -2.058594 10.441406 -2.785156 L 10.441406 -1.824219 C 10.441406 -0.417969 11.199219 0.105469 12.472656 0.105469 C 12.839844 0.105469 13.046875 0.078125 13.332031 -0.0507812 L 13.332031 -1.328125 C 12.605469 -1.300781 12.34375 -1.613281 12.34375 -2.34375 Z M 10.261719 -4.324219 C 9.921875 -3.621094 8.542969 -1.378906 5.753906 -1.378906 C 3.957031 -1.378906 2.941406 -2.394531 2.941406 -3.90625 C 2.941406 -5.339844 3.671875 -6.121094 5.886719 -6.484375 C 7.683594 -6.796875 9.480469 -7.082031 10.261719 -7.5 Z M 10.261719 -4.324219 "/></g></g></g><g fill="#000000" fill-opacity="1"><g transform="translate(264.530042, 121.167043)"><g><path d="M 8.230469 -13.671875 C 5.625 -13.671875 4.035156 -12.082031 3.59375 -10.261719 L 3.59375 -13.542969 L 1.511719 -13.542969 L 1.511719 0 L 3.59375 0 L 3.59375 -7.917969 C 4.035156 -10.285156 5.625 -11.796875 8.386719 -11.796875 C 8.566406 -11.796875 8.800781 -11.796875 9.191406 -11.769531 L 9.191406 -13.621094 C 8.800781 -13.671875 8.515625 -13.671875 8.230469 -13.671875 Z M 8.230469 -13.671875 "/></g></g></g><g fill="#000000" fill-opacity="1"><g transform="translate(274.424959, 121.167043)"><g><path d="M 6.847656 -13.671875 C 3.984375 -13.671875 0.859375 -11.5625 0.859375 -6.769531 C 0.859375 -1.925781 3.984375 0.183594 6.902344 0.183594 C 9.191406 0.183594 10.730469 -1.171875 11.40625 -2.734375 L 11.40625 0 L 13.488281 0 L 13.488281 -18.386719 L 11.40625 -18.386719 L 11.40625 -11.015625 C 10.597656 -12.65625 8.90625 -13.671875 6.847656 -13.671875 Z M 7.214844 -1.5625 C 4.949219 -1.5625 2.890625 -3.175781 2.890625 -6.769531 C 2.890625 -10.363281 4.949219 -11.925781 7.214844 -11.925781 C 9.453125 -11.925781 11.511719 -10.390625 11.511719 -6.769531 C 11.511719 -3.253906 9.453125 -1.5625 7.214844 -1.5625 Z M 7.214844 -1.5625 "/></g></g></g><g clip-path="url(#a4d5d40ed8)"><path fill="#837683" d="M 311.199219 101.441406 C 311.789062 101.441406 312.269531 101.921875 312.269531 102.511719 L 312.269531 122.1875 C 312.269531 122.773438 311.789062 123.253906 311.199219 123.253906 L 294.730469 123.253906 C 294.140625 123.253906 293.660156 122.773438 293.660156 122.1875 L 293.660156 102.511719 C 293.660156 101.921875 294.140625 101.441406 294.730469 101.441406 Z M 311.199219 101.441406 " fill-opacity="1" fill-rule="evenodd"/></g><g clip-path="url(#47af10819b)"><path fill="#685e68" d="M 309.820312 123.253906 L 311.199219 123.253906 C 311.789062 123.253906 312.269531 122.773438 312.269531 122.1875 L 312.269531 102.511719 C 312.269531 101.921875 311.789062 101.441406 311.199219 101.441406 L 309.820312 101.441406 Z M 309.820312 123.253906 " fill-opacity="1" fill-rule="evenodd"/></g><path fill="#eceff1" d="M 310.300781 102.929688 L 295.628906 102.929688 C 295.363281 102.929688 295.148438 103.144531 295.148438 103.410156 L 295.148438 121.289062 C 295.148438 121.550781 295.363281 121.769531 295.628906 121.769531 L 310.300781 121.769531 C 310.566406 121.769531 310.78125 121.550781 310.78125 121.289062 L 310.78125 103.410156 C 310.78125 103.144531 310.566406 102.929688 310.300781 102.929688 Z M 310.300781 102.929688 " fill-opacity="1" fill-rule="evenodd"/><path fill="#d1d1d6" d="M 309.820312 121.769531 L 310.300781 121.769531 C 310.316406 121.769531 310.332031 121.765625 310.347656 121.765625 C 310.589844 121.742188 310.78125 121.535156 310.78125 121.289062 L 310.78125 103.410156 C 310.78125 103.160156 310.589844 102.953125 310.347656 102.933594 C 310.332031 102.929688 310.316406 102.929688 310.300781 102.929688 L 309.820312 102.929688 Z M 309.820312 121.769531 " fill-opacity="1" fill-rule="evenodd"/><g clip-path="url(#86f3b3b730)"><path fill="#e3a76f" d="M 299.328125 100.796875 L 300.851562 100.796875 C 301.050781 100.796875 301.21875 100.683594 301.296875 100.503906 C 301.574219 99.859375 302.214844 99.40625 302.964844 99.40625 C 303.714844 99.40625 304.359375 99.859375 304.636719 100.503906 C 304.714844 100.683594 304.882812 100.796875 305.078125 100.796875 L 306.601562 100.796875 C 306.867188 100.796875 307.082031 101.011719 307.082031 101.277344 L 307.082031 103.09375 C 307.082031 103.359375 306.867188 103.574219 306.601562 103.574219 L 299.328125 103.574219 C 299.0625 103.574219 298.847656 103.359375 298.847656 103.09375 L 298.847656 101.277344 C 298.847656 101.011719 299.0625 100.796875 299.328125 100.796875 Z M 299.328125 100.796875 " fill-opacity="1" fill-rule="evenodd"/></g><path fill="#c48958" d="M 306.121094 103.09375 L 298.847656 103.09375 C 298.847656 103.359375 299.0625 103.574219 299.328125 103.574219 L 306.601562 103.574219 C 306.867188 103.574219 307.082031 103.359375 307.082031 103.09375 L 307.082031 101.277344 C 307.082031 101.011719 306.867188 100.796875 306.601562 100.796875 L 306.601562 102.613281 C 306.601562 102.734375 306.558594 102.84375 306.484375 102.929688 C 306.394531 103.03125 306.265625 103.09375 306.121094 103.09375 Z M 306.121094 103.09375 " fill-opacity="1" fill-rule="evenodd"/><path fill="#eceff1" d="M 303.355469 100.503906 C 303.464844 100.613281 303.519531 100.742188 303.519531 100.894531 C 303.519531 101.046875 303.464844 101.179688 303.355469 101.285156 C 303.25 101.394531 303.117188 101.449219 302.964844 101.449219 C 302.8125 101.449219 302.683594 101.394531 302.574219 101.285156 C 302.464844 101.179688 302.414062 101.046875 302.414062 100.894531 C 302.414062 100.742188 302.464844 100.613281 302.574219 100.503906 C 302.683594 100.398438 302.8125 100.34375 302.964844 100.34375 C 303.117188 100.34375 303.25 100.398438 303.355469 100.503906 Z M 303.355469 100.503906 " fill-opacity="1" fill-rule="nonzero"/><path fill="#fe646f" d="M 298.148438 105.96875 L 300.015625 105.96875 C 300.355469 105.96875 300.632812 106.246094 300.632812 106.585938 L 300.632812 108.449219 C 300.632812 108.789062 300.355469 109.066406 300.015625 109.066406 L 298.148438 109.066406 C 297.8125 109.066406 297.535156 108.789062 297.535156 108.449219 L 297.535156 106.585938 C 297.535156 106.246094 297.8125 105.96875 298.148438 105.96875 Z M 298.148438 105.96875 " fill-opacity="1" fill-rule="evenodd"/><path fill="#fd4755" d="M 300.269531 106.023438 C 300.484375 106.121094 300.632812 106.335938 300.632812 106.585938 L 300.632812 108.449219 C 300.632812 108.789062 300.355469 109.066406 300.015625 109.066406 L 298.148438 109.066406 C 297.902344 109.066406 297.683594 108.914062 297.589844 108.703125 C 297.664062 108.738281 297.75 108.757812 297.839844 108.757812 L 299.707031 108.757812 C 300.046875 108.757812 300.324219 108.480469 300.324219 108.140625 L 300.324219 106.273438 C 300.324219 106.183594 300.304688 106.097656 300.269531 106.023438 Z M 300.269531 106.023438 " fill-opacity="1" fill-rule="evenodd"/><path fill="#ffe177" d="M 298.484375 107.347656 C 298.332031 107.199219 298.332031 106.957031 298.484375 106.804688 C 298.632812 106.65625 298.878906 106.65625 299.027344 106.804688 L 299.675781 107.453125 L 301.605469 105.703125 C 301.761719 105.558594 302.003906 105.570312 302.148438 105.726562 C 302.289062 105.886719 302.277344 106.128906 302.121094 106.269531 L 299.9375 108.253906 L 299.933594 108.253906 C 299.785156 108.40625 299.539062 108.40625 299.390625 108.253906 Z M 298.484375 107.347656 " fill-opacity="1" fill-rule="evenodd"/><path fill="#6cf5c2" d="M 298.148438 111.203125 L 300.015625 111.203125 C 300.355469 111.203125 300.632812 111.480469 300.632812 111.816406 L 300.632812 113.683594 C 300.632812 114.023438 300.355469 114.300781 300.015625 114.300781 L 298.148438 114.300781 C 297.8125 114.300781 297.535156 114.023438 297.535156 113.683594 L 297.535156 111.816406 C 297.535156 111.480469 297.8125 111.203125 298.148438 111.203125 Z M 298.148438 111.203125 " fill-opacity="1" fill-rule="evenodd"/><path fill="#00e499" d="M 300.269531 111.257812 C 300.484375 111.351562 300.632812 111.570312 300.632812 111.816406 L 300.632812 113.683594 C 300.632812 114.023438 300.355469 114.300781 300.015625 114.300781 L 298.148438 114.300781 C 297.902344 114.300781 297.683594 114.148438 297.589844 113.933594 C 297.664062 113.96875 297.75 113.988281 297.839844 113.988281 L 299.707031 113.988281 C 300.046875 113.988281 300.324219 113.710938 300.324219 113.375 L 300.324219 111.507812 C 300.324219 111.417969 300.304688 111.332031 300.269531 111.257812 Z M 300.269531 111.257812 " fill-opacity="1" fill-rule="evenodd"/><path fill="#ffe177" d="M 298.484375 112.582031 C 298.332031 112.433594 298.332031 112.1875 298.484375 112.039062 C 298.632812 111.890625 298.878906 111.890625 299.027344 112.039062 L 299.675781 112.6875 L 301.605469 110.9375 C 301.761719 110.792969 302.003906 110.804688 302.148438 110.960938 C 302.289062 111.117188 302.277344 111.363281 302.121094 111.503906 L 299.9375 113.488281 L 299.933594 113.488281 C 299.785156 113.640625 299.539062 113.640625 299.390625 113.488281 Z M 298.484375 112.582031 " fill-opacity="1" fill-rule="evenodd"/><path fill="#8ac9fe" d="M 298.148438 116.4375 L 300.015625 116.4375 C 300.355469 116.4375 300.632812 116.710938 300.632812 117.050781 L 300.632812 118.917969 C 300.632812 119.257812 300.355469 119.53125 300.015625 119.53125 L 298.148438 119.53125 C 297.8125 119.53125 297.535156 119.257812 297.535156 118.917969 L 297.535156 117.050781 C 297.535156 116.710938 297.8125 116.4375 298.148438 116.4375 Z M 298.148438 116.4375 " fill-opacity="1" fill-rule="evenodd"/><path fill="#60b7ff" d="M 300.269531 116.488281 C 300.484375 116.585938 300.632812 116.800781 300.632812 117.050781 L 300.632812 118.917969 C 300.632812 119.257812 300.355469 119.53125 300.015625 119.53125 L 298.148438 119.53125 C 297.902344 119.53125 297.683594 119.382812 297.589844 119.167969 C 297.664062 119.203125 297.75 119.222656 297.839844 119.222656 L 299.707031 119.222656 C 300.046875 119.222656 300.324219 118.945312 300.324219 118.609375 L 300.324219 116.742188 C 300.324219 116.652344 300.304688 116.566406 300.269531 116.488281 Z M 300.269531 116.488281 " fill-opacity="1" fill-rule="evenodd"/><path fill="#ffe177" d="M 298.484375 117.816406 C 298.332031 117.667969 298.332031 117.421875 298.484375 117.273438 C 298.632812 117.121094 298.878906 117.121094 299.027344 117.273438 L 299.675781 117.921875 L 301.605469 116.167969 C 301.761719 116.027344 302.003906 116.039062 302.148438 116.195312 C 302.289062 116.351562 302.277344 116.59375 302.121094 116.738281 L 299.9375 118.71875 L 299.933594 118.722656 C 299.785156 118.871094 299.539062 118.871094 299.390625 118.722656 Z M 298.484375 117.816406 " fill-opacity="1" fill-rule="evenodd"/><path fill="#a79ba7" d="M 303.199219 107.0625 C 302.988281 107.0625 302.816406 106.890625 302.816406 106.679688 C 302.816406 106.464844 302.988281 106.292969 303.199219 106.292969 L 307.601562 106.292969 C 307.8125 106.292969 307.984375 106.464844 307.984375 106.679688 C 307.984375 106.890625 307.8125 107.0625 307.601562 107.0625 Z M 303.199219 108.738281 C 302.988281 108.738281 302.816406 108.566406 302.816406 108.355469 C 302.816406 108.144531 302.988281 107.972656 303.199219 107.972656 L 305.402344 107.972656 C 305.613281 107.972656 305.785156 108.144531 305.785156 108.355469 C 305.785156 108.566406 305.613281 108.738281 305.402344 108.738281 Z M 303.199219 108.738281 " fill-opacity="1" fill-rule="evenodd"/><path fill="#a79ba7" d="M 303.199219 111.765625 C 302.988281 111.765625 302.816406 111.59375 302.816406 111.378906 C 302.816406 111.167969 302.988281 110.996094 303.199219 110.996094 L 307.601562 110.996094 C 307.8125 110.996094 307.984375 111.167969 307.984375 111.378906 C 307.984375 111.59375 307.8125 111.765625 307.601562 111.765625 Z M 303.199219 113.441406 C 302.988281 113.441406 302.816406 113.269531 302.816406 113.058594 C 302.816406 112.84375 302.988281 112.671875 303.199219 112.671875 L 305.402344 112.671875 C 305.613281 112.671875 305.785156 112.84375 305.785156 113.058594 C 305.785156 113.269531 305.613281 113.441406 305.402344 113.441406 Z M 303.199219 113.441406 " fill-opacity="1" fill-rule="evenodd"/><path fill="#a79ba7" d="M 303.199219 117.53125 C 302.988281 117.53125 302.816406 117.359375 302.816406 117.144531 C 302.816406 116.933594 302.988281 116.761719 303.199219 116.761719 L 307.601562 116.761719 C 307.8125 116.761719 307.984375 116.933594 307.984375 117.144531 C 307.984375 117.359375 307.8125 117.53125 307.601562 117.53125 Z M 303.199219 119.207031 C 302.988281 119.207031 302.816406 119.035156 302.816406 118.824219 C 302.816406 118.609375 302.988281 118.4375 303.199219 118.4375 L 305.402344 118.4375 C 305.613281 118.4375 305.785156 118.609375 305.785156 118.824219 C 305.785156 119.035156 305.613281 119.207031 305.402344 119.207031 Z M 303.199219 119.207031 " fill-opacity="1" fill-rule="evenodd"/><path fill="#e3a76f" d="M 308.292969 113.28125 L 313.5625 104.15625 C 313.851562 103.660156 314.488281 103.492188 314.980469 103.777344 L 315.339844 103.984375 C 315.835938 104.269531 316.007812 104.90625 315.71875 105.398438 L 310.449219 114.527344 L 308.667969 115.554688 C 308.585938 115.601562 308.496094 115.601562 308.417969 115.554688 C 308.339844 115.511719 308.292969 115.433594 308.292969 115.339844 Z M 308.292969 113.28125 " fill-opacity="1" fill-rule="evenodd"/><path fill="#c48958" d="M 315.554688 104.148438 C 315.878906 104.472656 315.960938 104.984375 315.71875 105.398438 L 310.449219 114.527344 L 309.117188 115.296875 Z M 315.554688 104.148438 " fill-opacity="1" fill-rule="evenodd"/><path fill="#685e68" d="M 308.292969 115.339844 L 308.292969 113.28125 L 310.449219 114.527344 L 308.667969 115.554688 C 308.585938 115.601562 308.496094 115.601562 308.417969 115.554688 C 308.339844 115.511719 308.292969 115.433594 308.292969 115.339844 Z M 308.292969 115.339844 " fill-opacity="1" fill-rule="evenodd"/></svg>